<svg width="16" height="16" viewBox="0 0 16 16" fill="none" xmlns="http://www.w3.org/2000/svg">
<path fill-rule="evenodd" clip-rule="evenodd" d="M1.33317 8.00001C1.33317 11.6819 4.31794 14.6667 7.99984 14.6667C11.6817 14.6667 14.6665 11.6819 14.6665 8.00001C14.6665 4.31811 11.6817 1.33334 7.99984 1.33334C4.31794 1.33334 1.33317 4.31811 1.33317 8.00001ZM4.93984 6.00001L7.99984 8.93121L11.0598 6.00001L11.9998 6.90241L7.99984 10.7424L3.99984 6.90241L4.93984 6.00001Z" fill="#B9B9B9"/>
<mask id="mask0_0_512" style="mask-type:alpha" maskUnits="userSpaceOnUse" x="1" y="1" width="14" height="14">
<path fill-rule="evenodd" clip-rule="evenodd" d="M1.33317 8.00001C1.33317 11.6819 4.31794 14.6667 7.99984 14.6667C11.6817 14.6667 14.6665 11.6819 14.6665 8.00001C14.6665 4.31811 11.6817 1.33334 7.99984 1.33334C4.31794 1.33334 1.33317 4.31811 1.33317 8.00001ZM4.93984 6.00001L7.99984 8.93121L11.0598 6.00001L11.9998 6.90241L7.99984 10.7424L3.99984 6.90241L4.93984 6.00001Z" fill="white"/>
</mask>
<g mask="url(#mask0_0_512)">
</g>
</svg>
